<?xml version="1.0" encoding="UTF-8"?>
<svg id="Layer_2" data-name="Layer 2" xmlns="http://www.w3.org/2000/svg" viewBox="0 0 887 366.85">
  <defs>
    <style>
      .cls-1 {
        fill: #231f20;
      }

      .cls-2 {
        fill: #fff;
      }
    </style>
  </defs>
  <g>
    <path class="cls-1" d="M24.68,355.32c-4.9-2.86-8.76-6.75-11.6-11.64-2.84-4.89-4.25-10.29-4.25-16.19s1.42-11.29,4.25-16.19c2.84-4.9,6.7-8.78,11.6-11.64,4.89-2.86,10.26-4.3,16.1-4.3,4.73,0,9.14.84,13.22,2.5,4.09,1.67,7.58,4.06,10.47,7.18,2.89,3.12,5,6.73,6.34,10.85l-7.93,3.34c-1.17-4.73-3.77-8.5-7.8-11.31-4.03-2.81-8.8-4.21-14.31-4.21-4.34,0-8.3,1.06-11.89,3.17-3.59,2.11-6.41,4.98-8.47,8.59-2.06,3.62-3.08,7.62-3.08,12.02s1.03,8.4,3.08,12.02c2.06,3.61,4.88,6.48,8.47,8.59,3.59,2.11,7.55,3.17,11.89,3.17,5.51,0,10.23-1.38,14.18-4.13,3.95-2.75,6.56-6.52,7.84-11.31l8.01,3.01c-1.28,4.17-3.38,7.83-6.3,10.97-2.92,3.14-6.43,5.56-10.52,7.26-4.09,1.7-8.5,2.54-13.22,2.54-5.84,0-11.21-1.43-16.1-4.3Z"/>
    <path class="cls-1" d="M98.85,342.43l-7.59,16.36h-9.34l29.12-62.58h5.67l29.12,62.58h-9.34l-7.59-16.36h-30.04ZM124.97,334.09l-11.1-23.95-11.1,23.95h22.19Z"/>
    <path class="cls-1" d="M171.36,331.5v27.29h-8.51v-62.58h45.06v8.34h-36.55v18.61h34.04v8.34h-34.04Z"/>
    <path class="cls-1" d="M271.57,350.44v8.35h-45.89v-62.58h45.89v8.34h-37.38v18.61h34.88v8.34h-34.88v18.94h37.38ZM263.65,273.17l-12.6,18.02h-9.93l12.43-18.02h10.1Z"/>
    <path class="cls-1" d="M329.14,296.2v62.58h-8.51v-62.58h8.51Z"/>
    <path class="cls-1" d="M356.59,317.56v41.22h-8.43v-62.58h7.01l25.53,49.48,25.45-49.48h7.01v62.58h-8.43v-41.22l-21.19,41.22h-5.76l-21.19-41.22Z"/>
    <path class="cls-1" d="M440.7,296.2v62.58h-8.51v-62.58h8.51Z"/>
    <path class="cls-1" d="M475.54,355.32c-4.87-2.86-8.72-6.75-11.56-11.64s-4.25-10.29-4.25-16.19,1.42-11.29,4.25-16.19c2.84-4.9,6.69-8.78,11.56-11.64,4.87-2.86,10.22-4.3,16.06-4.3,4.78,0,9.22.85,13.31,2.54,4.09,1.7,7.58,4.1,10.47,7.22,2.89,3.12,4.98,6.79,6.26,11.01l-7.93,3.09c-1.28-4.78-3.91-8.57-7.89-11.35-3.98-2.78-8.72-4.17-14.23-4.17-4.34,0-8.29,1.04-11.85,3.13-3.56,2.08-6.37,4.95-8.43,8.59-2.06,3.64-3.08,7.66-3.08,12.06s1.03,8.42,3.08,12.06c2.06,3.64,4.87,6.51,8.43,8.59,3.56,2.09,7.51,3.13,11.85,3.13,3.78,0,7.26-.82,10.43-2.46,3.17-1.64,5.8-3.95,7.89-6.93,2.09-2.97,3.41-6.38,3.97-10.22h-29.2v-8.34h37.96v4.17c0,6.06-1.35,11.53-4.04,16.4-2.7,4.87-6.41,8.7-11.14,11.51-4.73,2.81-10.01,4.21-15.85,4.21s-11.19-1.43-16.06-4.3Z"/>
    <path class="cls-1" d="M550.18,358.78h-8.51v-62.58h28.29c3.89,0,7.34.74,10.35,2.21,3,1.48,5.34,3.55,7.01,6.22,1.67,2.67,2.5,5.73,2.5,9.18s-.84,6.51-2.5,9.18c-1.67,2.67-4.01,4.74-7.01,6.21-3.01,1.48-6.45,2.21-10.35,2.21h1.25l24.7,27.37h-11.51l-24.45-27.37h-9.76v27.37ZM550.18,304.55v18.53h19.77c3.5,0,6.27-.84,8.3-2.5,2.03-1.67,3.05-3.92,3.05-6.76s-1.01-5.09-3.05-6.76c-2.03-1.67-4.8-2.5-8.3-2.5h-19.77Z"/>
    <path class="cls-1" d="M625.77,342.43l-7.59,16.36h-9.34l29.12-62.58h5.67l29.12,62.58h-9.34l-7.59-16.36h-30.04ZM651.89,334.09l-11.1-23.95-11.1,23.95h22.19Z"/>
    <path class="cls-1" d="M698.28,312.14v46.65h-8.51v-62.58h6.76l37.22,46.64v-46.64h8.51v62.58h-6.76l-37.21-46.65Z"/>
    <path class="cls-1" d="M792.81,304.55v54.24h-8.68v-54.24h-22.86v-8.34h54.4v8.34h-22.87Z"/>
    <path class="cls-1" d="M878.09,350.44v8.35h-45.89v-62.58h45.89v8.34h-37.38v18.61h34.88v8.34h-34.88v18.94h37.38Z"/>
  </g>
  <g>
    <path d="M865.32,20.91c3.05,3.18,7.17,7.24,12.07,10.53.17.1.34.21.5.31.1.06.19.13.29.19V7.23h-24.61c2.54,2.69,4.93,5.55,7.45,8.58,1.39,1.67,2.83,3.4,4.3,5.1Z"/>
    <path d="M821.69,12.99c3.92,6.07,7.3,10.6,9.52,12.77l.66.65c5.38,5.27,8.94,8.76,24.07,13.86.89.3,1.95.5,3.19.74,4.31.82,10.73,2.12,19.05,9.52v-15.34l-.07-.05c-.14-.1-.29-.2-.43-.31-.56-.4-1.14-.82-1.77-1.17-7.55-4.35-12.97-11.15-18.21-17.72-2.31-2.9-4.7-5.89-7.23-8.62l-.08-.08h-33c-.41.25-.8.52-1.25.75,2.1,1.01,4.11,2.77,5.56,5.01Z"/>
    <path d="M731.09,32.29c-.58,4.68-1.37,9.22-2.17,12.76.77-.5,1.54-1,2.31-1.49,10.36-6.65,20.15-12.93,24.93-24.53,1.58-4.94,3.26-8.7,5.27-11.8h-31.05c.09,2.1.31,4.1.55,6.14.57,4.85,1.22,10.35.15,18.92Z"/>
    <path d="M759.58,15.7c-.48,1.37-.98,2.78-1.53,4.15-2.67,6.47-6.93,12.37-12.29,17.07-3.06,2.74-6.48,5.03-9.79,7.24-1.47.98-2.97,1.99-4.42,3.02,1.47-.05,3-.09,4.61-.09,5.54,0,11.46.38,15.13,1.89,13.53,5.56,26.15-3.6,30.14-8.92,3.27-4.36,4.14-7.92,4.99-11.37,1.01-4.11,1.96-7.98,6.76-12.03,5.7-4.81,11.62-7.03,16.37-8.82.56-.21,1.08-.41,1.61-.61h-47.95l-.11.19c-1.5,2.54-2.48,5.33-3.52,8.28Z"/>
    <path d="M854.35,130.62c-20.34-20.06-44.63-36.8-73.63-38.42-2.59.76-5.09,1.36-7.71,1.89-6.33,1.27-13.21-1.37-26.29-7.78-.8-.39-1.62-.75-2.45-1.06,1.52,2.33,2.19,4.88,2.54,6.2l.06.22c2.16,8.13,4.04,11.37,4.66,12.44.11.2.2.39.27.56.17.25.35.5.52.72,3.49,4.42,8.82,6.92,15.42,7.24h1.29c5.86-.03,6.47-.05,11.18,2.17,3.57,1.68,5.41,4.08,7.04,6.19.86,1.12,1.67,2.18,2.67,3.01.43.35.88.74,1.35,1.16,2.65,2.32,5.65,4.95,13.53,4.99,4.17-.11,6.23-.72,8.53-1.49,2.26-.77,4.6-1.56,8.55-1.63,5.29.07,9.2,1.66,13.53,5.51,2.58,2.29,3.8,4.49,4.99,6.63.93,1.67,1.8,3.24,3.34,4.91,2.3,2.5,7.42,5.33,13.23,5.63,8.18.42,15.27,2.98,21.05,7.61.05.04.11.1.16.15v-6.68c-6.04-8.63-15.64-13.39-23.83-20.16Z"/>
    <path d="M871.52,122.6c-1.27-2.75-1.5-4.47-1.72-6.12-.15-1.14-.3-2.22-.82-3.72-3.07-8.8-12.67-13.58-15.53-14.83-2.43-1.06-3.51-1.37-5-1.8-1.12-.32-2.45-.7-4.65-1.48-5.34-1.88-8.23-2.9-11.69-8.01-1.26-1.88-3.81-5.7-8.87-8.17-7.5-3.66-12.97-.53-14.76.5l-.44.25c-2.97,1.96-6.27,3.89-9.64,5.62-6.28,3.23-11.11,5.25-15.54,6.7,26.84-.17,51.91,14.46,70.3,33.52,5.52,5.3,11.73,9.56,17.86,14.36,2.74,2.33,5.11,5.01,7.16,7.9v-15.58l-.24-.25c-2.72-2.58-4.91-5.6-6.41-8.89Z"/>
    <path d="M719.95,124.75c2.04-1.37,3.93-2.43,5.6-3.05l2.21-.79c3.48-1.23,7.08-2.5,10.16-4.88,3.27-2.53,4.74-4.68,6.04-6.57,1.09-1.59,2.12-3.11,3.92-4.5-.8-1.48-1.49-3.12-2.08-4.74-9.56,4.33-17.79,12.14-25.85,24.53Z"/>
    <path d="M745.52,99.47s0,0,0,0c-.95-2.69-1.62-5.21-1.99-6.61l-.07-.28c-.02-.07-.04-.14-.06-.21-1.64-6.1-3.9-7.8-6.8-8.46-.08-.02-.16-.03-.23-.05-.49-.07-1-.09-1.54-.08-1.6.13-2.69.97-4.79,2.68-1.4,1.14-3.14,2.56-5.56,4-1.36.81-3.22,1.92-5.93,2.8-2.29.74-3.86.9-5.13,1.02-.67.07-1.26.11-1.84.29-3.41,1.03-5.52,6.38-6.35,11.04-1.68,9.42,5.02,17.73,8.78,21.56l.16-.21c7.89-10.71,17.78-22.34,31.35-27.46Z"/>
    <path d="M639.62,166.36c2.32-.06,4.61.18,6.84.75.24.06.47.14.7.21.13.04.25.08.38.12.08.02.16.05.24.08,14.47-7.75,28.33-5.48,37.71-8.31,15.09-4.56,23.95-17.67,29.26-26.62.17-.28.33-.56.49-.83l-.21-.13.13-.21c.37-.64.73-1.25,1.06-1.83.95-1.64,1.74-3,2.42-4.02l-4.48,1.88c-.03.92-.24,1.91-.6,2.96-.1.29-.2.58-.32.88-3.88,9.44-19.16,22.59-30.28,24.83-13.96,2.8-22.32-.9-36.76,3.97-2.12.71-4.16,1.66-6.14,2.74,0,.05,0,.1,0,.15-.08,1.09-.23,2.23-.44,3.38Z"/>
    <path d="M719.33,125c-1.65.69-3.3,1.38-4.95,2.07-.07.03-.13.05-.19.08,0,.04-.01.09-.02.14,0,.02,0,.05,0,.07,0,.02,0,.05,0,.07l4.48-1.88c-.68,1.03-1.47,2.39-2.42,4.02-.34.58-.69,1.19-1.06,1.83l-.13.21.21.13c.04-.07.09-.15.13-.22,1.66-2.84,2.96-5.18,3.96-6.54Z"/>
    <path d="M387.2,158.63c41.86,8.55,82.46,14.1,129.58,21.47,0,0,0-.01,0-.02.02-.07.03-.14.04-.21.02-.1.03-.19.06-.29,1.19-4.79,3.7-9.07,7.26-12.39-17.73-3.18-37.95-6.73-61.66-10.84-24.48-4.24-46.07-8.42-65.32-12.51-.56,2.81-1.61,5.44-3.11,7.83-1.76,2.8-4.07,5.13-6.85,6.96Z"/>
    <path d="M664.74,197.85c-.82,3.31-2.26,6.35-4.27,9.06,19.56,4.34,40.27,9.2,62.51,14.79,20.69,5.2,40.38,10.44,58.95,15.6-.84-3.07-1.15-6.21-.91-9.34,0-.02,0-.04,0-.06-21.75-6.71-44.38-13.15-67.01-18.95-18.99-4.87-34.67-8.89-49.01-12.47l-.07.39c-.06.32-.12.65-.19.97Z"/>
    <path d="M124,59.56s0,0,0,.01c51.48,29.03,98.77,49.66,140.14,64.6-2.06-2.72-3.47-5.69-4.19-8.83-.81-3.57-.78-7.18.08-10.74,0,0,0-.02,0-.03-5.72-2.14-11.15-4.2-16.42-6.16-41-15.32-81.05-35.73-117.52-56.9,1.32,6.07.58,12.47-2.09,18.06Z"/>
    <path d="M125.19,20.87c-1.1,3.18-2.76,6.1-4.91,8.71.24.29.49.59.72.89.03.04.05.08.08.12,44.5-5.79,118.39-13.1,175.07-17.33,0,0,0-.01,0-.02,0-1.82.23-3.78.73-6h-53.49c-36.54,3.22-76.58,7.75-118.17,13.52-.01.04-.02.08-.04.12Z"/>
    <path d="M571.4,52.29l-.03-.44s0-.05,0-.08c-52.35-12.53-87.17-26.58-119.84-36.59-.56,2.59-1.46,5.08-2.68,7.4,3.26.84,6.56,1.71,9.98,2.65,52.22,14.46,83.87,24.83,113.67,31.89-.31-.83-.65-1.79-.86-2.79-.14-.68-.19-1.37-.23-2.03Z"/>
    <path d="M729.37,48.28c.31-.17.64-.33.96-.5l-1.69-1.4c-.25.13-.71.36-1.34.66l-.33.16-.17-.33h0c-.35.16-.73.34-1.18.55-6.6,3.06-23.37,10.12-44.43,13.68-.95.16-1.9.31-2.85.45,0,.03,0,.05,0,.08-.23,1.52-.58,2.85-1.05,4.05,4.4-.67,8.47-1.49,12.23-2.46,15.09-3.87,27.32-8.69,36.42-13.18.95-.47,1.86-.94,2.74-1.4.23-.12.46-.24.69-.36Z"/>
    <path d="M726.96,47.2l.33-.16c.63-.3,1.09-.53,1.34-.66l1.69,1.4c.12-.06.24-.13.36-.19l-.17-.14-1.83-1.51s-.57.29-1.55.77c-.1.05-.23.11-.34.16h0s.17.34.17.34Z"/>
    <path d="M479.75,228c-12.78-9.09-25.74-14.59-39.61-16.83-.13-.02-.25-.04-.37-.06-2.54.45-5.01.76-7.57,1-6.5.61-13.31-2.83-25.98-10.79-.82-.52-1.66-.99-2.51-1.42,1.35,2.58,1.77,5.31,1.98,6.71h0s.04.3.04.3c1.32,8.5,2.89,12,3.4,13.16.1.21.17.42.22.6.15.28.3.55.46.8,3.09,4.9,8.27,8.05,14.99,9.1l1.31.14c5.98.6,6.6.66,11.17,3.43,3.45,2.09,5.07,4.74,6.5,7.07.76,1.24,1.48,2.41,2.4,3.38.4.4.82.85,1.26,1.33,2.46,2.66,5.24,5.68,13.31,6.58,4.14.46,6.45-.05,8.89-.6,1.86-.42,3.78-.85,6.45-.85.75,0,1.56.03,2.44.11,5.38.64,9.19,2.69,13.18,7.08.93,1.02,1.61,2,2.2,2.96h20.26c-.94-.88-1.95-1.83-2.93-2.83-10.57-12.88-20.87-22.81-31.49-30.37Z"/>
    <path d="M374.47,237.87c2.32-1.25,4.44-2.16,6.29-2.63l2.34-.57c3.69-.88,7.51-1.79,10.93-3.88,3.62-2.23,5.36-4.27,6.89-6.06,1.29-1.51,2.51-2.95,4.52-4.18-.67-1.64-1.22-3.45-1.66-5.22-10.23,3.35-19.55,10.52-29.3,22.54Z"/>
    <path d="M528.66,245.55c-.03-1.19-.07-2.31-.44-3.9-2.18-9.34-11.48-15.27-14.27-16.86-2.37-1.35-3.44-1.79-4.91-2.39-1.11-.45-2.42-.99-4.58-2.02-5.24-2.5-8.07-3.85-11.05-9.43-1.09-2.07-3.29-6.25-8.18-9.32-7.28-4.57-13.22-1.95-15.17-1.1l-.48.2c-3.25,1.68-6.83,3.29-10.45,4.69-6.67,2.58-11.78,4.11-16.41,5.1,12.92,1.34,25.67,6.01,37.88,13.89,10.94,7.06,21.37,16.75,30.15,28.03,2.79,3.31,5.76,6.24,8.29,8.66l.09.09h15.78c-2.28-2.79-4.05-5.9-5.16-9.23-.99-2.95-1.04-4.71-1.09-6.43Z"/>
    <path d="M403.6,214.67s0,0,0,0c-.68-2.85-1.09-5.49-1.31-6.96l-.04-.24c-.01-.1-.03-.19-.04-.29-1.01-6.43-3.15-8.42-6.05-9.41-.09-.03-.19-.06-.27-.09-.48-.12-1-.2-1.55-.25-1.59,0-2.87.7-5.21,2.22-1.55,1.01-3.48,2.27-6.11,3.48-1.48.68-3.5,1.61-6.35,2.21-2.41.51-4.01.51-5.34.48-.2,0-.39,0-.58,0-.46,0-.9.02-1.34.1-3.64.69-6.43,6.16-7.72,10.63-2.74,9.47,3.25,18.74,6.67,23.04,9.3-10.21,20.75-21.15,35.23-24.91Z"/>
    <path d="M195.57,193.9s.05-.06.08-.08c-5-10.38-9.63-20.76-15.59-30.39-16.15-26.12-43.84-57.23-74.46-88.83-.03,0-.05.01-.08.01h-.07c-2.14.53-4.3.79-6.42.79-4.98,0-9.89-1.38-14.2-4-.04-.02-.08-.05-.11-.08-.03.05-.06.1-.1.14,0,.01-.02.02-.02.03,19.88,20.1,38.28,39.14,50.63,52.62,27.83,30.38,41.64,55.4,55.4,78.24.44-1.14.89-2.14,1.36-3.05.97-1.88,2.18-3.69,3.59-5.39Z"/>
    <path d="M367.02,242.69l-.21-.17.32-.18c2.75-1.58,4.65-2.82,5.68-3.57-1.33.42-3.42,1.08-4.23,1.26h0s-.94.31-.94.31l.12-.12c-.69.38-1.48.8-2.38,1.25-9.42,4.76-30.24,13.28-54.34,16.94,0,0,0,.01,0,.02.06.83.07,1.71.03,2.77h8.77c20.48-4.92,37.54-13.06,46.73-18.26.15-.08.3-.17.45-.25Z"/>
    <path d="M368.58,240.03h0c.82-.18,2.91-.83,4.23-1.26-1.02.75-2.93,1.99-5.68,3.57l-.32.18.21.17c.08-.04.16-.09.23-.13,4.02-2.31,6.38-3.97,6.63-4.4,0,0-4.15,1.36-5.37,1.63,0,0,0,0,0,0-.23.13-.49.28-.76.42l-.12.12.94-.31Z"/>
    <path d="M105.11,72.38c13.6-3.35,21.97-17.25,18.67-30.97-.9-3.73-2.59-7.14-5.02-10.13-3.62,3.71-8.14,6.33-13.11,7.55-2.17.54-4.4.81-6.61.81-1.98,0-4-.26-6.18-.77-1.16,2.34-2.68,4.49-4.51,6.38.4,1.1.71,2.1.94,3.04,1.74,7.24.56,14.73-3.31,21.13.01,0,.03.02.04.03,5.77,3.51,12.55,4.55,19.1,2.93Z"/>
    <path d="M70.35,52.93c-2.31,0-4.62-.32-6.88-.96-.69-.19-1.39-.43-2.1-.7-3.86,8.56-11.06,15.17-19.82,18.2,2.06,3.03,4.67,5.52,7.76,7.4,5.77,3.51,12.55,4.55,19.1,2.93,13.6-3.35,21.97-17.25,18.67-30.97-.14-.58-.32-1.19-.54-1.87-1.21,1.02-2.51,1.95-3.9,2.73-3.77,2.12-8.02,3.24-12.29,3.24Z"/>
    <path class="cls-2" d="M85.39,70.34s.04-.07.07-.1c-.02.03-.04.07-.07.1Z"/>
    <path d="M92.95,16.25c3.12,6.43,3.41,13.89.82,20.54,3.78.83,7.6.78,11.34-.15,12.96-3.2,21.3-16.1,18.97-29.37v-.04h-24.68l-.05.11c-1.6,3.39-3.76,6.39-6.4,8.91ZM109.72,12.94c.97-1.18,2.39-1.69,4-1.44,2.03.31,4.02,1.81,4.73,3.56l.15.38-.34-.23c-1.52-1.04-3.88-1.99-5.52-1.24-.92.42-1.47,1.33-1.63,2.7-.3,1.77.08,3.22,1.06,4.07,1.07.93,2.74,1.11,4.7.49l.51-.16-.38.37c-1.08,1.04-2.5,1.83-3.97,1.83-.98,0-1.98-.35-2.91-1.22-2.16-2.01-2.93-6.07-.4-9.12Z"/>
    <path d="M48.13,39.81c-2.47-4.45-3.54-9.48-3.12-14.57-3.22,2.43-6.81,4.16-10.69,5.12-2.33.58-4.72.87-7.1.87-5.34,0-10.61-1.49-15.24-4.3-.84-.51-1.69-1.1-2.59-1.79v35.72l.17.15c1.5,1.35,3.09,2.53,4.72,3.52,7.17,4.36,15.62,5.66,23.77,3.65,9.45-2.33,17.17-8.82,21.24-17.82-4.74-2.29-8.6-5.92-11.17-10.55ZM30.21,57.08c.5.31,1.29.62,2.16.29.74-.24,1.41-.86,2.08-1.54l.28-.28-.07.39c-.41,2.26-1.82,3.59-3.79,3.59-.07,0-.13,0-.2,0-2.34-.1-5.04-2.12-5.32-5.19-.2-2.48,1.69-4.98,4.12-5.46,2.43-.49,4.53,1.24,5.18,3.19l.16.48-.36-.35c-1.28-1.23-3-1.65-4.39-1.07-1.16.49-1.83,1.56-1.85,2.96.11,1.07.97,2.36,1.99,2.99Z"/>
    <path class="cls-2" d="M40.35,69.86s.05-.01.07-.02c-.02,0-.05.01-.07.02Z"/>
    <path d="M91.82,14.17c1.95-1.96,3.64-4.29,5.01-6.94h-11.13c2.45,1.92,4.5,4.25,6.13,6.94Z"/>
    <path d="M13.17,24.99c6.22,3.78,13.54,4.91,20.62,3.17,4.33-1.07,8.37-3.21,11.7-6.21,1.18-5.53,4.17-10.54,8.42-14.14.02-.1.04-.19.06-.29.02-.09.03-.19.05-.28H9.41v14.98l.16.14c1.24,1.06,2.41,1.92,3.59,2.64Z"/>
    <path d="M50.11,38.71c3.04,5.46,8,9.4,13.97,11.08,5.9,1.67,12.1.93,17.44-2.08,11.09-6.25,15.04-20.46,8.81-31.67-1.97-3.54-4.84-6.51-8.29-8.6l-.35-.21h-23.06l-.35.21c-10.72,6.5-14.31,20.24-8.17,31.27ZM61.37,12.95l.1.23c-2.29,1.28-3.12,3.72-2.59,5.36.45,1.41,1.79,2.1,3.65,1.9,1.88-.42,3.1-1.54,3.25-2.97.17-1.66-1.11-3.35-3.25-4.31l-.44-.2.48-.04c2.26-.2,4.4,1.01,5.3,3.02.86,1.9.41,3.95-1.2,5.46h0c-1.4,1.28-2.95,1.95-4.45,1.95-.77,0-1.53-.17-2.25-.52-1.97-.95-3.25-3.06-3.1-5.12.09-1.26.79-3.55,4.51-4.74Z"/>
    <path d="M632.42,211.85c-.09.37-.21.73-.32,1.08l-.06.19c1.03.41,1.92.71,2.79.93,5.88,1.49,12,.6,17.22-2.53,5.27-3.16,9-8.21,10.5-14.22,3.05-12.35-4.41-24.91-16.64-28.01-1.84-.47-3.73-.7-5.61-.7-.28,0-.55.03-.82.05-.11.01-.22.02-.33.03-1.95,7.53-6.59,13.96-13.1,18.17,6.19,6.79,8.57,16.12,6.37,25.01ZM647.62,199.99c1.1-.53,2.33-.4,3.39.39,1.26.93,1.99,2.52,1.78,3.87l-.04.27-.18-.2c-1.19-1.38-2.47-2.57-3.74-1.85-1.16.96-1.73,2.2-1.47,3.24.24.97,1.17,1.68,2.62,1.99l.38.08-.35.16c-.75.33-1.42.47-2.01.47-1.47,0-2.43-.88-2.9-1.93-.96-2.14-.17-5.25,2.52-6.48Z"/>
    <path d="M605.85,178.06c2.39-.04,4.73.23,6.96.8,4.33,1.1,8.34,3.29,11.63,6.33,6.33-3.95,10.8-10.13,12.61-17.41,3.81-15.37-5.49-31.02-20.72-34.89-7.28-1.84-15.03-.7-21.46,3.16-3.23,1.94-6,4.45-8.23,7.44,2.37,3.47,3.99,7.46,4.69,11.56,8.57,4.49,14.11,13.27,14.52,23ZM601.33,138.05c-1.76,1.29-2.51,3.54-.73,4.58,3.22.91,5.15-2.51,1.53-4.61,3.16-.67,5.78,3.28,3.03,5.96-5.11,4.85-10.96-4-3.83-5.93Z"/>
    <path d="M541.83,192.95c.84-3.4,2.29-6.6,4.29-9.51-6.38-4.67-10.61-11.82-11.67-19.69-1.76.55-3.4,1.27-4.89,2.16-5.27,3.16-9,8.21-10.5,14.22-3.05,12.34,4.41,24.91,16.64,28.01,2.17.55,4.4.76,6.66.65-1.64-5.16-1.83-10.63-.54-15.85Z"/>
    <path d="M565.17,155.79c6.16-3.69,13.38-4.75,20.32-2.98,1.03.26,2.09.62,3.28,1.09-2.29-9.87-9.66-17.49-19.37-19.96-6.77-1.72-14-.65-20,2.94-6.12,3.67-10.45,9.53-12.18,16.51-2.61,10.54,1.52,21.85,10.27,28.24,1.38-1.7,2.93-3.23,4.63-4.55.12-1.64.35-3.12.7-4.54,1.75-7.08,6.14-13.03,12.36-16.76ZM546.94,156.06c.3.21.77.43,1.31.3h0c.51-.1,1.01-.5,1.55-.93l.28-.23-.03.3c-.18,1.83-1.26,2.91-2.88,2.91h-.06c-1.94-.03-4.13-1.67-4.28-4.05-.15-2.43,1.6-3.99,3.4-4.28,1.4-.22,3.24.32,3.83,2.59l.09.35-.29-.22c-1.01-.76-2.17-.99-3.03-.58-.69.33-1.09,1-1.13,1.9.06.56.52,1.45,1.25,1.95Z"/>
    <path class="cls-2" d="M534.91,163.39s0,0,0,.01l-.03-.2.02.19Z"/>
    <path d="M579.03,206.36c-2.22,0-4.45-.28-6.62-.83-11.64-2.95-19.92-13.37-20.34-25.45-3.97,3.57-6.75,8.19-8.05,13.41-3.55,14.33,5.11,28.92,19.31,32.52,6.84,1.73,13.94.69,20-2.94.54-.32,1.1-.7,1.75-1.16-3.45-4.46-5.46-9.97-5.7-15.58,0,0-.01,0-.02,0-.11.01-.23.02-.34.02Z"/>
    <path d="M592.73,202.55c-3.37,2.02-7.1,3.23-11.1,3.63.44,11.01,8.07,20.55,18.65,23.23,6.36,1.61,12.97.64,18.6-2.74,5.7-3.41,9.72-8.87,11.33-15.36,3.3-13.33-4.76-26.9-17.97-30.25-1.99-.5-4.03-.76-6.06-.76-.09,0-.19,0-.28.02-.02,0-.04,0-.06,0-.08,1.87-.33,3.71-.77,5.47-1.75,7.08-6.14,13.03-12.36,16.76Z"/>
    <polygon class="cls-2" points="585.63 221.82 585.7 221.91 585.63 221.82 585.63 221.82"/>
    <path d="M584.94,154.99c-1.99-.5-4.03-.76-6.06-.76-4.39,0-8.73,1.21-12.54,3.5-5.7,3.41-9.72,8.87-11.33,15.36-3.3,13.33,4.76,26.9,17.97,30.25,6.36,1.61,12.97.64,18.6-2.74,5.7-3.41,9.72-8.87,11.33-15.36,3.3-13.33-4.76-26.9-17.97-30.25Z"/>
    <path class="cls-2" d="M579.36,205.83h0c.08,0,.17,0,.25,0h-.25Z"/>
    <path d="M805.54,257.59c-7.78-.9-14.83-5.02-19.39-11.37-.7-.98-1.37-2.09-2.03-3.36-3.2,3.05-5.27,6.89-5.97,11.14-.39,2.35-.35,4.76.11,7.16v.05h6.68c-.12-1.5.4-2.91,1.42-3.87,1.57-1.51,4.29-1.59,5.94-.19,1.37,1.18,1.46,2.86,1.09,4.06h10.01l.06-.11c.67-1.35,1.36-2.5,2.1-3.51Z"/>
    <path d="M790.75,258.94c-.78-.29-1.63-.12-2.4.47-.42.52-.71,1.15-.81,1.8h4.97c-.24-1.1-.9-1.95-1.76-2.27Z"/>
    <path d="M820.66,217.58c.44-2.64,1.3-5.2,2.56-7.63-8.87-6.5-20.73-6.63-29.59-.3-5.43,3.88-9.02,9.66-10.11,16.26-1.1,6.69.48,13.43,4.46,18.97,4.52,6.3,11.55,10.15,19.3,10.58,1.11-1.19,2.32-2.26,3.6-3.17,1.43-1.02,3.04-1.9,4.79-2.62.05-1.11.14-2.05.28-2.93.85-5.17,3.32-9.8,7.11-13.41-2.46-4.92-3.3-10.37-2.41-15.76Z"/>
    <path d="M845.84,198.47c-4.89,0-9.57,1.5-13.53,4.33-5.06,3.62-8.4,9-9.41,15.15-.78,4.73-.1,9.51,1.94,13.86l.04-.03c.25-.2.49-.4.75-.59,9.43-6.75,22.68-5.6,30.99,2.61,1.83-3.86,4.6-7.21,8.06-9.71h0s.1-.08.1-.08c1.46-1.04,3.09-1.95,4.83-2.69-.17-4.64-1.7-9.11-4.45-12.94-4.46-6.21-11.68-9.92-19.32-9.92ZM853.29,211.35c-5.78,5.4-12.26-4.41-4.3-6.74-2.95,1.78-2.88,6.19.87,5.7,3.31-.75,3.31-4.04.06-5.72,3.55-.59,6.46,3.77,3.37,6.77Z"/>
    <path d="M865.88,226.01c-3.34,2.45-5.96,5.76-7.6,9.59.37.44.72.86,1.04,1.3,3.8,5.3,5.31,11.74,4.25,18.13-.02.12-.05.23-.07.34,0,0,0,0,0,0,4.06.92,7.91,2.85,11.15,5.63l.22.19h3.3v-39.61c-4.38.27-8.56,1.74-12.08,4.26l-.21.15Z"/>
    <path d="M812.2,254.14c-2.6,1.86-4.71,4.24-6.28,7.07h12.15c-1.4-2.9-2.2-5.93-2.38-9.04-1.37.63-2.49,1.26-3.48,1.97Z"/>
    <path d="M861.67,261.2h9.5c-2.57-1.76-5.32-2.97-8.17-3.62-.34,1.21-.78,2.43-1.33,3.62Z"/>
    <path d="M861.34,254.67c.96-5.8-.41-11.64-3.86-16.44-4.15-5.78-10.86-9.23-17.96-9.23-4.54,0-8.9,1.39-12.58,4.03-4.7,3.36-7.81,8.36-8.75,14.09-.8,4.81.02,9.64,2.34,13.97l.06.12h38.56l.06-.11c1.05-2.03,1.76-4.19,2.13-6.42ZM837.08,247.18c-1.69-.88-3.78-1.71-4.88-.26-.82,1.57-.82,3.2,0,4.22.76.95,2.11,1.23,3.78.78l.43-.11-.3.32c-1.12,1.18-2.24,1.64-3.25,1.64-.94,0-1.77-.4-2.4-.97-1.89-1.7-2.49-5.17-.38-7.63.85-1.02,2.08-1.45,3.48-1.18,1.67.32,3.23,1.6,3.7,3.04l.09.29-.27-.14Z"/>
    <path d="M295.42,118.03c-3.74-3.79-6.36-8.52-7.54-13.7-1.07-4.68-.93-9.57.38-14.17-3.66-1.1-7.12-1.18-10.47-.42-5.39,1.22-9.98,4.47-12.94,9.17-3,4.76-3.95,10.42-2.69,15.93,1.9,8.31,8.78,14.77,17.17,16.13.39-.79.79-1.5,1.21-2.17,3.42-5.43,8.7-9.23,14.89-10.76ZM278.12,98.59c-1.02-.47-2.12-.64-2.81-.44-.55.25-.63.64-.76,1.29v.06c-.15.95-.02,1.61.37,2.02.44.46,1.23.62,2.41.5l.28-.03-.16.23c-.67.93-1.56,1.43-2.49,1.43-.38,0-.77-.08-1.15-.25-1.33-.58-2.53-2.3-2.13-4.34.1-.97.69-2.01,1.52-2.64.63-.48,1.32-.68,2.01-.57,1.73.18,2.73,1.46,3.08,2.59l.08.27-.25-.12Z"/>
    <path d="M312.93,120.21c.5-1.08.98-1.99,1.5-2.81,3.44-5.46,8.76-9.28,15.01-10.8.37-4.25,1.71-8.24,3.99-11.87,1.57-2.5,3.58-4.71,5.94-6.59-4.02-9.72-13.68-16.25-24.1-16.25-1.9,0-3.82.21-5.69.64-6.72,1.52-12.45,5.58-16.13,11.43-3.74,5.93-4.93,12.98-3.36,19.85,1.21,5.3,4,10.03,8.06,13.69,5.1-.67,10.21.26,14.79,2.69Z"/>
    <path d="M365.05,151.54c.47,2.08.69,4.28.64,6.54,4.28,2.05,8.94,2.59,13.51,1.56,5.39-1.22,9.98-4.48,12.94-9.17,3-4.76,3.95-10.42,2.69-15.93-1.68-7.38-7.19-13.29-14.4-15.5-.61,1.54-1.36,3.03-2.23,4.42-3.76,5.97-9.6,10.11-16.45,11.66-.67.15-1.34.25-1.99.34-.24,1.32-.6,2.65-1.08,3.97,3.13,3.43,5.34,7.61,6.37,12.11Z"/>
    <path d="M359.53,125.38c.58,2.52.74,5.13.52,7.75h.05c.38-.07.77-.13,1.15-.21,6.26-1.42,11.6-5.2,15.04-10.66,3.48-5.53,4.59-12.1,3.12-18.5-3-13.14-16.02-21.43-29.04-18.48-6.26,1.42-11.6,5.2-15.04,10.66-1.96,3.11-3.15,6.55-3.57,10.23,12.71-1.82,24.87,6.55,27.77,19.21ZM368.03,94.32c-2.12-.3-4.23.74-3.71,2.69.5,1.29,2.43,1.98,3.58,1.29.73-.36,1.12-1.88.71-3.45,2.73,1.72,1.78,6.32-2.03,6.28-7-.16-4.94-10.41,1.44-6.82Z"/>
    <path d="M340.94,155.2c-1.79.4-3.61.61-5.43.61-4,0-8-1.01-11.59-2.93-.5,1.08-.98,1.99-1.49,2.8-1.77,2.81-4.05,5.19-6.77,7.09,3.04,13.12,16.03,21.36,29.02,18.43,6.26-1.42,11.6-5.2,15.04-10.65,3.48-5.53,4.59-12.1,3.12-18.5-.87-3.79-2.6-7.25-5.15-10.28-.46.97-.9,1.79-1.36,2.52-3.51,5.58-8.98,9.46-15.39,10.91Z"/>
    <path d="M311.22,136.31c-1.07-4.68-.78-9.52.83-14-4.82-2.62-10.37-3.42-15.64-2.22-5.82,1.32-10.78,4.83-13.98,9.9-3.24,5.14-4.27,11.25-2.91,17.21,2.79,12.22,14.9,19.93,27,17.18,5.83-1.32,10.79-4.83,13.98-9.91.52-.82,1-1.75,1.48-2.82-5.5-3.6-9.33-9.04-10.77-15.35Z"/>
    <path d="M340.44,152.99c5.82-1.32,10.79-4.83,13.98-9.9,3.24-5.14,4.27-11.25,2.91-17.21-2.79-12.21-14.9-19.92-27-17.18-5.82,1.32-10.79,4.84-13.98,9.91-3.24,5.14-4.27,11.25-2.91,17.21,2.79,12.21,14.9,19.92,27.01,17.18ZM330.87,137.69c2.12-.38,3.86,1.16,4.27,2.79l.09.37-.29-.24c-1.1-.9-2.41-1.18-3.42-.72-.81.37-1.3,1.17-1.33,2.2.26,1.26,1.04,2.23,2.02,2.49.92.25,1.88-.13,2.72-1.07l.27-.3-.05.4c-.24,1.95-1.41,3.1-3.14,3.1-.04,0-.07,0-.11,0-2.07-.06-4.4-1.83-4.58-4.37-.17-2.14,1.46-4.27,3.56-4.65Z"/>
    <path d="M650.36,59.77c2.12,2.6,3.52,5.49,4.16,8.58.45,2.15.53,4.38.25,6.62,7.05,2.03,14.73-.79,18.76-6.91,2.5-3.79,3.37-8.31,2.45-12.73-.9-4.36-3.44-8.09-7.14-10.52-2.31-1.52-4.93-2.39-7.78-2.61-.34,3.82-1.64,7.54-3.77,10.78-1.79,2.71-4.12,4.99-6.93,6.79Z"/>
    <path d="M640.13,52.98c2.04.56,3.95,1.42,5.69,2.56,1.07.7,2.1,1.54,3.09,2.51,2.63-1.64,4.82-3.76,6.5-6.31,3.12-4.73,4.21-10.38,3.06-15.91-1.13-5.45-4.3-10.12-8.94-13.16-3.38-2.22-7.31-3.39-11.36-3.39-3.56,0-7.12.95-10.31,2.73,2.33,2.81,3.87,5.94,4.57,9.31.7,3.39.59,6.8-.31,10.14,3.95,2.72,6.79,6.8,8.02,11.52ZM647.17,33.95c1.11-1.19,2.6-1.19,3.62-.78l.23.09-.22.13c-.99.6-1.59,1.37-1.74,1.86-.04.43.13.63.45.98l.12.13c.61.59,1.11.86,1.58.8.52-.05,1.03-.5,1.63-1.39l.14-.21.08.23c.5,1.41.12,2.67-1.04,3.36-.48.29-1.08.45-1.72.45-.94,0-1.95-.36-2.73-1.22-.67-.61-1.11-1.63-1.12-2.61,0-.75.24-1.38.71-1.83Z"/>
    <path d="M589.48,33.56c-5.34.31-10.25,3.13-13.18,7.58-2.49,3.79-3.36,8.31-2.45,12.73.9,4.36,3.44,8.1,7.14,10.53,1.03.67,2.19,1.22,3.61,1.71.34-3.53,1.55-6.96,3.52-9.95,1.64-2.49,3.75-4.58,6.25-6.24-2.35-2.82-3.9-5.96-4.61-9.37-.47-2.27-.56-4.62-.28-6.99Z"/>
    <path d="M600.48,62.61c-.53-2.54-.56-5.11-.12-7.65-.1-.06-.21-.11-.31-.16-.33-.17-.67-.35-1-.57-1.14-.74-2.21-1.61-3.19-2.57-2.38,1.52-4.35,3.45-5.85,5.73-2.9,4.41-3.92,9.67-2.85,14.81,1.05,5.07,4.01,9.42,8.32,12.25,6.63,4.35,15.44,4.13,21.98-.51-1.13-1.74-2-3.75-2.58-5.98-2.06-.57-3.97-1.42-5.69-2.54-4.52-2.96-7.61-7.51-8.71-12.82ZM606.23,82.76l-.22.14.02-.26c.1-1.04-.17-1.88-.74-2.3-.43-.32-1.02-.35-1.64-.09-.34.22-.79.84-.91,1.47-.05.26-.07.63.15.94.21.34.64.58,1.13.84l.37.2-.27.09c-.5.17-.96.26-1.38.26-.76,0-1.38-.28-1.8-.82-.83-1.05-.77-2.98.13-4.38.84-1.3,2.17-1.83,3.67-1.47,1.28.2,2.29,1.16,2.57,2.44.26,1.19-.15,2.3-1.08,2.92Z"/>
    <path d="M637.46,69.44c-3.83,5.81-10.26,9.28-17.21,9.28-.88,0-1.83-.09-2.84-.23,1.29,3.95,3.73,7.21,7.1,9.42,8.34,5.46,19.62,3.07,25.15-5.33,2.7-4.1,3.64-8.99,2.65-13.76-.98-4.71-3.72-8.76-7.73-11.39-1.19-.78-2.48-1.39-3.92-1.89.63,4.87-.49,9.8-3.2,13.91Z"/>
    <path d="M630.03,40.2c.68-2.87.74-5.7.18-8.42-1.05-5.07-4.01-9.42-8.32-12.25-3.15-2.06-6.81-3.16-10.58-3.16-6.66,0-12.82,3.33-16.49,8.9-2.9,4.41-3.92,9.67-2.85,14.82,1.05,5.07,4,9.42,8.32,12.25.19.12.39.23.58.34l.03.02c.58-1.98,1.43-3.85,2.55-5.55,5.78-8.77,17.39-11.77,26.58-6.95ZM600.95,25.61c-1.45,1.16-2.01,3.03-.54,3.8,2.62.6,4.03-2.01,1.23-3.82,2.81-.74,5.18,2.85,2.73,5.24-4.55,4.36-9.8-3.63-3.42-5.22Z"/>
    <path d="M630.49,43.05c-2.93-1.92-6.33-2.93-9.83-2.93-6.19,0-11.91,3.09-15.32,8.27-2.7,4.1-3.64,8.99-2.65,13.76.98,4.71,3.72,8.76,7.73,11.38,8.34,5.46,19.62,3.07,25.15-5.34,2.7-4.1,3.64-8.99,2.65-13.76-.98-4.71-3.72-8.75-7.73-11.38Z"/>
    <polygon class="cls-2" points="631.69 41.77 631.69 41.77 631.7 41.77 631.69 41.77"/>
    <path d="M67.99,149.23c8.04,9.11,13.81,20.33,24.75,26.08,10.27,6.49,23.76,6.17,33.64,13.39,2.18,1.33,4.55,2.36,6.98,3.29-4.94-4.29-6.71-6.55-8.14-8.37-1.22-1.56-2.18-2.78-4.8-4.93-1.8-1.48-3.82-2.31-5.95-3.19-3.32-1.37-7.09-2.92-9.94-7.24-1.04-1.58-1.72-3.3-2.43-5.12-1-2.55-2.13-5.44-4.56-8.68-1.53-2.05-5.08-3.98-8.21-5.68-3.76-2.05-7.01-3.82-8.16-6.18-.17-.34-.38-.82-.63-1.4-2.06-4.67-7.54-17.08-17.85-19.96-8.39-2.35-17.03,1.19-24.64,4.32-5.38,2.21-10.05,4.11-14.2,3.9,4.87,2.1,10.26,2.13,15.47,3.51,10.64,2.94,21.18,7.88,28.67,16.27Z"/>
    <path d="M25.74,154.1c2.17.05,4.64.11,6.94,2.57.49.53.99,1.19,1.54,1.94,1.44,1.97,3.24,4.42,6.97,6.37,2.79,1.45,5.24,1.19,8.07.87,3.21-.36,6.84-.76,11.24,1.39,5.64,2.75,7.36,8.12,9.03,13.31,1.91,5.95,3.71,11.56,11.09,14.05,5.35,1.81,9.52.54,13.92-.8,2.79-.85,5.66-1.72,8.78-1.72.78,0,1.58.05,2.4.18,3.93.6,6.07,1.73,7.78,2.65,1.68.9,2.71,1.44,4.92,1.21,2.18-.22,3.6-.81,5.39-1.55,1.93-.8,4.12-1.71,7.69-2.34.68-.12,1.33-.16,1.92-.15-5.26-.75-10.11-3.81-14.95-5.53-9.22-2.23-19.2-3.59-27.61-8.46-6.15-3.34-11.54-8.36-15.48-13.84-6.53-8.67-12.23-17.59-22.09-22.72-4.59-2.81-9.34-5.22-14.48-6.84-4.95-1.83-10.56-2.41-15.09-5.27-.19-.01-.38,0-.57-.02-4.29-.47-9.17-2.64-13.75-5.19v10.62c1.06,5.18,2.51,10.74,6.64,14.91,4.18,4.22,6.98,4.29,9.69,4.35Z"/>
    <path d="M303.4,245.52c-2.71,3.34-6.29,5.79-10.39,7.08-2.14.68-4.36,1.02-6.59,1.02-3.74,0-7.51-1.03-10.92-2.98-.31.72-.59,1.34-.88,1.9-.97,1.86-2.2,3.65-3.67,5.32.53.98,1.01,2.08,1.43,3.27l.03.08h36.43c.22-5.75-1.72-11.3-5.43-15.68Z"/>
    <path d="M227.86,222.19c-2.34-7.36-1.68-15.18,1.86-22,1.71-3.3,4-6.17,6.8-8.55-5.11-4.13-11.39-6.41-17.74-6.41-2.84,0-5.67.44-8.39,1.3-7.13,2.25-12.95,7.15-16.41,13.81-3.5,6.75-4.16,14.47-1.84,21.75,1.18,3.7,3.07,7.07,5.63,10.02,3.33-4.4,7.84-7.6,13.08-9.25,5.71-1.8,11.89-1.58,17.5.57-.02-.05-.04-.1-.06-.14-.15-.35-.31-.71-.44-1.09Z"/>
    <path d="M242.78,214.34c8.59-2.72,17.9-.87,24.95,4.93,2.84-4.45,6.9-7.61,11.78-9.15.5-.16.99-.27,1.47-.39-.23-1.47-.53-2.79-.92-4.01-4.42-13.91-19.24-21.7-33.05-17.36-6.64,2.1-12.07,6.67-15.29,12.87-3.26,6.29-3.87,13.49-1.72,20.27.12.39.27.76.42,1.13,3.23-3.89,7.49-6.76,12.35-8.29ZM261.25,198.96c1.34-1.41,3.99-1.81,6.17-.92,2.03.83,3.17,2.55,3.14,4.71.11,1.76-.8,3.4-2.37,4.28-.72.4-1.5.6-2.28.6-.91,0-1.81-.27-2.58-.82l-.35-.25.43.02c1.87.1,3.54-.62,4.14-1.79.56-1.14.46-2.34-.26-3.28-.85-1.1-2.36-1.63-3.87-1.34-1.33.23-2.06,1.39-2.24,3.54l-.04.46-.2-.42c-.91-1.93-.8-3.63.31-4.8Z"/>
    <path d="M230.75,258.14c.06-.13.14-.24.23-.35.03-.04.05-.08.08-.12-2.57-2.9-4.44-6.15-5.56-9.66-2.19-6.89-1.57-14.2,1.75-20.59.3-.57.62-1.11.93-1.62-5.31-2.21-11.21-2.5-16.64-.79-6.17,1.95-11.22,6.2-14.22,11.97-3.04,5.85-3.6,12.54-1.6,18.86.56,1.77,1.36,3.53,2.39,5.24l.08.13h31.26l.03-.08c.39-1.11.8-2.08,1.27-2.98ZM208.4,250.02c-5.11,4.85-10.96-4-3.83-5.93-1.76,1.29-2.5,3.54-.73,4.58,3.22.91,5.15-2.51,1.53-4.61,3.16-.66,5.78,3.28,3.03,5.96Z"/>
    <path d="M231.85,261.2h2.92c-.82-.63-1.51-1.21-2.13-1.79-.27.55-.54,1.13-.79,1.79Z"/>
    <path d="M269.28,259.58c-.59.56-1.22,1.1-1.88,1.62h2.54l-.13-.35c-.16-.43-.33-.86-.52-1.27Z"/>
    <path d="M276.26,248.53c4.88,2.9,10.72,3.61,16.06,1.92,5.02-1.58,9.12-5.04,11.56-9.73,2.47-4.75,2.93-10.2,1.3-15.33-2.67-8.39-10.33-14.03-19.07-14.03-2,0-3.99.31-5.91.91-4.44,1.4-8.24,4.42-10.75,8.5,3.18,3.09,5.57,6.95,6.91,11.18,1.73,5.44,1.69,11.17-.1,16.57Z"/>
    <path d="M272.61,251.5c3.03-5.85,3.6-12.55,1.6-18.86-3.28-10.33-12.71-17.27-23.47-17.27-2.46,0-4.91.38-7.27,1.12-6.18,1.95-11.23,6.2-14.22,11.97-3.04,5.84-3.6,12.54-1.6,18.86,1.81,5.69,5.63,10.55,10.77,13.67l.35.21h24.64l.35-.21c3.76-2.3,6.82-5.59,8.85-9.49Z"/>
    <path class="cls-2" d="M268.65,220.03s.02.02.03.03c-.01-.01-.02-.02-.03-.03Z"/>
    <path d="M301.19,24.45c5.43,10.4,17.57,15.53,28.93,12.27-.45-3.81-.1-7.58,1.05-11.21,1.25-3.98,3.36-7.52,6.25-10.56-2.55-2.12-4.67-4.67-6.29-7.6l-.07-.12h-20.63l-.03.06c-.34.67-.92,1.09-1.67,1.21-.14.02-.29.03-.44.03-.95,0-1.98-.45-2.73-1.21l-.08-.09h-6.33v.06c-1.43,5.8-.7,11.9,2.04,17.16Z"/>
    <path d="M413.2,14.42c1.44,1.26,2.7,2.63,3.76,4.08,3.64,5.01,5.26,11.17,4.61,17.36,6.15.33,12.26-1.46,17.24-5.06,5.84-4.22,9.67-10.44,10.8-17.51.31-1.92.39-3.96.25-6.04v-.02h-31.01l-.07.12c-1.45,2.65-3.33,5.02-5.58,7.07Z"/>
    <path d="M411.2,12.82c.08.05.15.1.22.15,1.8-1.59,3.39-3.52,4.74-5.74h-6.3c.62,1.91,1,3.71,1.16,5.47.06.04.12.08.18.12Z"/>
    <path d="M339.05,13.39c1.74-1.55,3.62-2.86,5.58-3.88,1.95-1.01,4.07-1.76,6.41-2.28h-17.35c1.47,2.38,3.27,4.45,5.36,6.16Z"/>
    <path d="M383.08,41.39c-.86,2.73-2.18,5.32-3.89,7.71,7.92,8.6,21.05,9.88,30.64,2.96,5.06-3.66,8.39-9.05,9.37-15.19.96-6.05-.48-12.1-4.06-17.04-1.11-1.52-2.46-2.92-4.01-4.19-.03,1.23-.12,2.34-.28,3.38-1.07,6.73-4.72,12.64-10.27,16.66-4.4,3.18-9.59,4.87-15.01,4.87-.79,0-1.55-.06-2.23-.12-.02.07-.03.14-.05.21-.06.26-.13.52-.21.77Z"/>
    <path d="M365.08,30.16c-3.94-5.43-5.53-12.08-4.47-18.73.12-.78.3-1.57.52-2.4-1.46-.23-2.7-.35-3.88-.35-4,0-7.99.98-11.56,2.83-5.96,3.1-10.35,8.31-12.36,14.68-1.98,6.28-1.4,12.94,1.63,18.76,6.31,12.09,21.39,16.77,33.61,10.43,5.96-3.1,10.35-8.31,12.36-14.67.05-.17.1-.34.14-.52,0-.03.02-.07.02-.1-6.51-1.15-12.18-4.67-16.01-9.93Z"/>
    <path d="M362.84,11.79c-.97,6.05.48,12.1,4.06,17.04,7.45,10.27,21.96,12.51,32.34,5.01,5.06-3.66,8.39-9.05,9.37-15.18.61-3.81.25-7.73-1.05-11.34l-.03-.08h-43.47l-.03.09c-.54,1.45-.93,2.95-1.18,4.47ZM390.28,26.02c-2.39,2.06-1.76,5.99,1.56,5.03,2.85-1.14,2.45-4.01-.71-5.18,3.22-1.11,6.57,2.58,4.09,5.82-4.63,5.86-12.09-2.45-4.95-5.66Z"/>
    <path d="M22.99,258.45c-2.49-5.11-3.3-10.74-2.31-16.31,1.23-6.95,5.08-13,10.85-17.02h0c.1-.07.2-.13.29-.19-4.91-4.54-11.24-7.04-17.87-7.04-1.37,0-2.83.14-4.49.43h-.04v42.88h11.06l.13-.16c.84-1.04,1.61-1.87,2.39-2.59Z"/>
    <path d="M70.83,251.47c1.14-6.44-.32-12.96-4.1-18.34-4.6-6.56-12.13-10.48-20.14-10.48-4.96,0-9.72,1.5-13.78,4.33-5.27,3.68-8.8,9.21-9.92,15.56-.87,4.9-.21,9.87,1.87,14.41l.05-.04c.26-.21.53-.42.81-.62,9.37-6.54,21.92-5.8,30.61,1.78l.17-.13c.28-.22.56-.45.86-.66h0c3.9-2.72,8.5-4.32,13.31-4.64l.05-.2c.08-.32.16-.64.22-.98ZM52.51,236.3c.77-.24,1.44-.89,2.12-1.57-1.83,8.04-12.53.62-7.97-5.03,2.13-3.09,6.92-2.29,7.98,1.22-2.58-2.47-6.4-1.44-6.44,1.98.19,1.76,2.25,4.17,4.31,3.4Z"/>
    <path d="M58.56,259.13c-.2.14-.39.29-.58.44-.03.03-.07.05-.1.08.25.27.49.56.72.84.15.18.29.37.44.54l.14.16h29.67c-8.39-7.62-21.08-8.51-30.29-2.07Z"/>
    <path d="M39.74,254.11c-4.61,0-9.04,1.39-12.81,4.03-1.24.87-2.42,1.9-3.51,3.06h32.84c-4.3-4.51-10.31-7.09-16.52-7.09Z"/>
  </g>
</svg>